<?xml version="1.0" standalone="no"?><!DOCTYPE svg PUBLIC "-//W3C//DTD SVG 1.1//EN" "http://www.w3.org/Graphics/SVG/1.1/DTD/svg11.dtd"><svg t="1614306509780" class="icon" viewBox="0 0 1024 1024" version="1.1" xmlns="http://www.w3.org/2000/svg" p-id="7403" xmlns:xlink="http://www.w3.org/1999/xlink" width="200" height="200"><defs><style type="text/css"></style></defs><path d="M52.738 512c0-60.121 11.941-120.242 34.944-175.771a460.765 460.765 0 0 1 99.579-148.969 460.619 460.619 0 0 1 148.966-99.577C391.757 64.72 451.878 52.738 512 52.738c60.121 0 120.242 11.941 175.775 34.945 55.523 23.005 106.465 57.073 148.963 99.577a460.554 460.554 0 0 1 99.576 148.969c22.963 55.528 34.947 115.649 34.947 175.771s-11.939 120.242-34.947 175.771a460.405 460.405 0 0 1-99.576 148.968 460.517 460.517 0 0 1-148.969 99.576c-55.527 22.963-115.648 34.947-175.77 34.947-60.122 0-120.243-11.939-175.773-34.947a460.547 460.547 0 0 1-148.966-99.576 460.644 460.644 0 0 1-99.579-148.968A460.747 460.747 0 0 1 52.738 512z m637.036-111.1c0-155.563-111.099-177.776-177.774-177.776S334.224 245.337 334.224 400.9c0 140.7 96.277 237.02 96.277 237.02l7.432 7.432v14.777c0 22.256-14.82 66.68-74.064 74.111a201.32 201.32 0 0 0-118.532 59.246C312.012 860.159 408.289 904.588 512 904.588c103.71 0 199.984-44.429 266.663-111.102-22.214-37.033-66.679-59.287-118.533-59.287-59.242-7.391-74.063-51.814-74.063-74.07v-7.386l7.434-7.392c-0.001-7.431 96.273-103.705 96.273-244.451z" p-id="7404"></path></svg>